<?xml version="1.0" encoding="UTF-8" standalone="no"?>
<svg
   xmlns:dc="http://purl.org/dc/elements/1.1/"
   xmlns:cc="http://creativecommons.org/ns#"
   xmlns:rdf="http://www.w3.org/1999/02/22-rdf-syntax-ns#"
   xmlns:svg="http://www.w3.org/2000/svg"
   xmlns="http://www.w3.org/2000/svg"
   xml:space="preserve"
   style="enable-background:new 0 0 252 180;"
   viewBox="0 0 252 180"
   y="0px"
   x="0px"
   id="Layer_1"
   version="1.1"><metadata
   id="metadata49"><rdf:RDF><cc:Work
       rdf:about=""><dc:format>image/svg+xml</dc:format><dc:type
         rdf:resource="http://purl.org/dc/dcmitype/StillImage" /><dc:title></dc:title></cc:Work></rdf:RDF></metadata><defs
   id="defs47" />
<style
   id="style2"
   type="text/css">
	.st0{fill:#FFFFFF;}
</style>
<g
   transform="matrix(1.2778049,0,0,1.4951901,-34.924107,-44.25118)"
   id="g42">
	<g
   id="g16">
		<path
   style="fill:#FFFFFF"
   id="path4"
   d="m 58.7,133 v 12.6 c -3.5,2.6 -8.6,4.4 -13.3,4.4 -10.1,0 -17.9,-7.6 -17.9,-17.3 0,-9.7 7.9,-17.2 18.3,-17.2 4.9,0 9.7,1.9 13.1,4.8 l -3.3,4.2 c -2.6,-2.4 -6.3,-3.9 -9.8,-3.9 -7,0 -12.4,5.3 -12.4,12.1 0,6.8 5.5,12.1 12.5,12.1 2.5,0 5.4,-0.9 7.8,-2.3 V 133 Z"
   class="st0" />
		<path
   style="fill:#FFFFFF"
   id="path6"
   d="M 93,149.8 74.8,125.3 v 24.5 H 69 v -34.1 h 5.7 L 93,140.2 v -24.5 h 5.7 v 34.1 H 93 Z"
   class="st0" />
		<path
   style="fill:#FFFFFF"
   id="path8"
   d="m 143.2,132.7 c 0,9.7 -7.9,17.3 -18.1,17.3 -10.2,0 -18.1,-7.6 -18.1,-17.3 0,-9.8 7.9,-17.2 18.1,-17.2 10.2,0 18.1,7.5 18.1,17.2 z m -30.4,0 c 0,6.8 5.6,12.1 12.3,12.1 6.7,0 12.1,-5.4 12.1,-12.1 0,-6.8 -5.5,-12 -12.1,-12 -6.7,0 -12.3,5.2 -12.3,12 z"
   class="st0" />
		<path
   style="fill:#FFFFFF"
   id="path10"
   d="m 174.6,118.9 -2.4,5.1 c -3.7,-2.2 -7.4,-3.2 -10,-3.2 -3.4,0 -5.6,1.3 -5.6,3.6 0,7.5 18.4,3.5 18.4,15.7 0,6.1 -5.4,9.8 -12.9,9.8 -5.4,0 -10.4,-2.2 -13.9,-5.4 l 2.5,-5 c 3.5,3.2 7.9,5 11.5,5 4,0 6.4,-1.5 6.4,-4.1 0,-7.6 -18.4,-3.4 -18.4,-15.5 0,-5.8 5,-9.5 12.4,-9.5 4.5,0 8.9,1.4 12,3.5 z"
   class="st0" />
		<path
   style="fill:#FFFFFF"
   id="path12"
   d="m 184,149.8 v -34.1 h 5.7 v 34.1 z"
   class="st0" />
		<path
   style="fill:#FFFFFF"
   id="path14"
   d="m 224,118.9 -2.4,5.1 c -3.7,-2.2 -7.4,-3.2 -10,-3.2 -3.4,0 -5.6,1.3 -5.6,3.6 0,7.5 18.4,3.5 18.4,15.7 0,6.1 -5.4,9.8 -12.9,9.8 -5.4,0 -10.4,-2.2 -13.9,-5.4 l 2.5,-5 c 3.5,3.2 7.9,5 11.5,5 4,0 6.4,-1.5 6.4,-4.1 0,-7.6 -18.4,-3.4 -18.4,-15.5 0,-5.8 5,-9.5 12.4,-9.5 4.5,0 8.9,1.4 12,3.5 z"
   class="st0" />
	</g>
	<g
   id="g40">
		<path
   style="fill:#FFFFFF"
   id="path18"
   d="m 153.3,46.6 -2.4,2.4 c 2,3 2.5,6.9 1.2,10.6 -2.2,6.3 -9.1,9.5 -15.4,7.3 -0.9,-0.3 -1.7,-0.7 -2.5,-1.2 l -7.8,7.8 -6.9,-6.9 c -3.2,2.1 -7.2,2.8 -11.1,1.4 -6.4,-2.3 -9.8,-9.4 -7.5,-15.8 0.4,-1 0.8,-1.9 1.4,-2.7 l -2.9,-2.9 -0.6,0.9 c -3.1,5 -4.7,10.8 -4.7,16.7 0,17.8 14.4,32.2 32.1,32.3 h 0.1 c 17.7,0 32.2,-14.4 32.2,-32.1 0,-5.9 -1.6,-11.7 -4.7,-16.7 z"
   class="st0" />
		<path
   style="fill:#FFFFFF"
   id="path20"
   d="m 106,53.1 c -0.8,1.1 -1.4,2.5 -1.4,4 0,3.6 2.9,6.5 6.5,6.5 1.5,0 2.9,-0.5 4,-1.4 z"
   class="st0" />
		<g
   id="g24">
			<path
   style="fill:#FFFFFF"
   id="path22"
   d="m 138.2,61.7 c 1,0.7 2.3,1.1 3.7,1.1 3.6,0 6.5,-2.9 6.5,-6.5 0,-1.4 -0.4,-2.6 -1.1,-3.7 z"
   class="st0" />
		</g>
		<g
   id="g28">
			<path
   style="fill:#FFFFFF"
   id="path26"
   d="M 126.5,68.6 99.9,42 l 1,-1.1 c 6.6,-7 15.6,-10.9 25.2,-10.9 h 0.1 c 9.7,0 19.1,4.2 25.6,11.4 l 1,1.1 z M 104.3,41.9 126.5,64.2 148.4,42.3 C 142.5,36.4 134.5,33 126.1,33 H 126 c -8.1,0.1 -15.8,3.2 -21.7,8.9 z"
   class="st0" />
		</g>
		<g
   id="g38">
			<g
   id="g32">
				<path
   style="fill:#FFFFFF"
   id="path30"
   d="M 97.2,85.8 94,85.6 C 80.8,84.7 62.5,81.5 50.7,70.8 43.5,64.3 42.1,58.1 42,57.8 L 41.7,56 h 48.1 l -0.2,1.8 c -0.2,1.6 -0.3,3.3 -0.3,4.9 0,7.3 2.1,14.4 6.2,20.6 z"
   class="st0" />
			</g>
			<g
   id="g36">
				<path
   style="fill:#FFFFFF"
   id="path34"
   d="m 155.5,85.8 1.7,-2.6 c 4,-6.1 6.2,-13.1 6.2,-20.4 0,-1.7 -0.1,-3.4 -0.3,-5 L 162.9,56 H 211 l -0.4,1.9 c -0.1,0.3 -1.4,6.5 -8.7,13 -11.8,10.6 -30.1,13.9 -43.3,14.8 z"
   class="st0" />
			</g>
		</g>
	</g>
</g>
</svg>
