<?xml version="1.0" standalone="no"?>
<!DOCTYPE svg PUBLIC "-//W3C//DTD SVG 20010904//EN"
 "http://www.w3.org/TR/2001/REC-SVG-20010904/DTD/svg10.dtd">
<svg version="1.0" xmlns="http://www.w3.org/2000/svg"
 width="282.000000pt" height="277.000000pt" viewBox="0 0 282.000000 277.000000"
 preserveAspectRatio="xMidYMid meet">
<metadata>
Created by potrace 1.15, written by Peter Selinger 2001-2017
</metadata>
<g transform="translate(0.000000,277.000000) scale(0.100000,-0.100000)"
fill="#000000" stroke="none">
<path d="M1285 2618 c-65 -35 -98 -91 -99 -167 l-1 -53 -165 -95 c-91 -52
-232 -133 -314 -179 l-148 -85 -22 20 c-72 68 -199 46 -251 -43 -91 -156 91
-322 241 -220 19 13 37 24 39 24 2 0 82 -44 177 -98 95 -54 234 -133 309 -175
l136 -77 0 -53 c0 -78 40 -141 106 -166 l27 -11 0 -370 0 -370 -27 -11 c-16
-6 -37 -19 -49 -30 -21 -19 -21 -19 -170 67 -82 47 -224 129 -315 181 l-166
95 0 59 c0 103 -65 169 -168 169 -87 0 -154 -61 -163 -148 -9 -97 54 -172 153
-180 44 -4 62 0 103 23 l50 27 209 -120 c114 -66 254 -146 309 -178 l102 -59
-1 -56 c-1 -105 61 -169 163 -169 101 0 164 61 167 163 l1 62 214 124 c117 68
258 150 313 182 97 57 100 58 120 40 34 -31 62 -41 113 -41 91 0 162 72 162
165 0 152 -184 223 -288 112 -32 -34 -51 -92 -45 -137 5 -37 5 -37 -73 -82
-199 -115 -425 -244 -483 -278 l-64 -37 -34 23 c-19 13 -43 26 -54 29 -18 6
-19 20 -19 375 l0 368 45 22 c64 31 99 92 93 161 l-5 49 106 64 c499 297 530
314 539 300 18 -28 76 -46 134 -42 47 4 64 10 89 34 44 41 59 76 59 132 0 106
-94 178 -204 158 -42 -8 -91 -46 -112 -89 -9 -17 -16 -53 -15 -83 l0 -54 -172
-102 c-95 -56 -226 -134 -292 -173 -173 -104 -163 -100 -188 -77 -53 48 -137
50 -203 6 -19 -13 -37 -24 -39 -24 -2 0 -82 44 -177 99 -95 54 -195 110 -223
126 -27 15 -89 49 -136 76 l-86 50 1 62 1 61 300 174 c165 95 305 175 312 178
7 3 26 -4 43 -16 69 -49 147 -46 211 7 118 99 44 293 -111 293 -25 -1 -54 -6
-65 -12z"/>
</g>
</svg>
