<?xml version="1.0" standalone="no"?>
<!DOCTYPE svg PUBLIC "-//W3C//DTD SVG 20010904//EN"
 "http://www.w3.org/TR/2001/REC-SVG-20010904/DTD/svg10.dtd">
<svg version="1.0" xmlns="http://www.w3.org/2000/svg"
 width="352.000000pt" height="490.000000pt" viewBox="0 0 352.000000 490.000000"
 preserveAspectRatio="xMidYMid meet">
<metadata>
Created by potrace 1.15, written by Peter Selinger 2001-2017
</metadata>
<g transform="translate(0.000000,490.000000) scale(0.100000,-0.100000)"
fill="#FFFFFF" stroke="none">
<path d="M880 4025 l-875 -875 178 -178 177 -177 -175 -175 -175 -175 170
-170 170 -170 -173 -173 -172 -172 878 -878 877 -877 877 877 878 878 -173
173 -172 172 170 170 170 170 -175 175 -175 175 177 177 178 178 -875 875
c-481 481 -877 875 -880 875 -3 0 -399 -394 -880 -875z m1575 -185 l690 -690
-80 -80 c-44 -44 -84 -80 -90 -80 -5 0 -281 271 -612 602 l-603 603 -603 -603
c-331 -331 -607 -602 -612 -602 -6 0 -46 36 -90 80 l-80 80 690 690 c380 380
692 690 695 690 3 0 315 -310 695 -690z m-175 -525 l515 -515 -80 -80 -80 -80
-437 437 -438 438 -438 -438 -437 -437 -80 80 -80 80 515 515 c283 283 517
515 520 515 3 0 237 -232 520 -515z m-172 -518 l342 -342 -345 -345 -345 -345
-345 345 -345 345 342 342 c189 189 345 343 348 343 3 0 159 -154 348 -343z
m-1485 -265 l77 -77 -83 -83 -82 -82 -80 80 -80 80 80 80 c44 44 82 80 85 80
3 0 40 -35 83 -78z m2442 -2 l80 -80 -80 -80 -80 -80 -82 82 -83 83 77 77 c43
43 80 78 83 78 3 0 41 -36 85 -80z m-867 -697 l437 437 83 -83 82 -82 -520
-520 -520 -520 -520 520 -520 520 82 82 83 83 437 -437 438 -438 438 438z
m175 -525 l612 612 80 -80 80 -80 -693 -693 -692 -692 -692 692 -693 693 80
80 80 80 612 -612 613 -613 613 613z"/>
</g>
</svg>
