<?xml version="1.0" encoding="UTF-8" standalone="no"?>
<svg
   xmlns:dc="http://purl.org/dc/elements/1.1/"
   xmlns:cc="http://creativecommons.org/ns#"
   xmlns:rdf="http://www.w3.org/1999/02/22-rdf-syntax-ns#"
   xmlns:svg="http://www.w3.org/2000/svg"
   xmlns="http://www.w3.org/2000/svg"
   version="1.1"
   viewBox="0 0 300 300"
   data-name="Layer 1"
   id="Layer_1">
  <metadata
     id="metadata21">
    <rdf:RDF>
      <cc:Work
         rdf:about="">
        <dc:format>image/svg+xml</dc:format>
        <dc:type
           rdf:resource="http://purl.org/dc/dcmitype/StillImage" />
        <dc:title>gno_token</dc:title>
      </cc:Work>
    </rdf:RDF>
  </metadata>
  <defs
     id="defs4">
    <style
       id="style2">.cls-1{fill:#00a1c8;}.cls-2{fill:#fff;}</style>
  </defs>
  <title
     id="title6">gno_token</title>
  <path
     style="fill:#00a1c8;stroke-width:1.60253215"
     id="path8"
     d="M 299.67846,149.97017 A 149.67847,148.55489 0 1 1 149.99999,1.4951138 149.67847,148.55489 0 0 1 299.67846,149.97017"
     class="cls-1" />
  <path
     id="path10"
     d="M201.62,118.17,197,122.76a22.78,22.78,0,0,1,2.3,20.26,23,23,0,0,1-29.45,14,22.16,22.16,0,0,1-4.78-2.3L150.19,169.6,137,156.4a23.67,23.67,0,0,1-35.56-27.53,22.06,22.06,0,0,1,2.67-5.16l-5.54-5.54-1.15,1.72a60.64,60.64,0,0,0-9,31.93,61.76,61.76,0,0,0,61.37,61.75H150a61.6,61.6,0,0,0,61.56-61.37,60.64,60.64,0,0,0-9-31.93Z"
     class="cls-2" />
  <path
     id="path12"
     d="M111.19,130.59a13.23,13.23,0,0,0-2.68,7.65,12.41,12.41,0,0,0,12.43,12.43,12,12,0,0,0,7.65-2.68Z"
     class="cls-2" />
  <path
     id="path14"
     d="M172.75,147a12.55,12.55,0,0,0,19.5-10.33,12.8,12.8,0,0,0-2.1-7.07Z"
     class="cls-2" />
  <path
     id="path16"
     d="M150.38,160.23,99.53,109.37l1.91-2.1a65.82,65.82,0,0,1,48.18-20.84h.19a66.32,66.32,0,0,1,48.94,21.8l1.92,2.1Zm-42.44-51,42.44,42.64L192.25,110a60.35,60.35,0,0,0-42.63-17.78h-.19A60.41,60.41,0,0,0,107.94,109.18Z"
     class="cls-2" />
</svg>
